# xmcd
#
# Track frame offsets:
# 150
# 14436
# 25877
# 44804
# 63173
# 79585
# 90932
# 103815
# 115039
# 125671
# 143503
# 164895
#
# Disc length: 2327 seconds
#
# Revision: 0
# Processed by: cddbd v1.5.2PL0 Copyright (c) Steve Scherf et al.
# Submitted via: CoinsHifi v1.9e contact@coinshifi.com
#
DISCID=9c09150c
DTITLE=Mano Solo - Je Sais Pas Trop
DYEAR=1997
DGENRE=rock
TTITLE0=Te Souviens-Tu
TTITLE1=Les Fées
TTITLE2=La Liberté
TTITLE3=Sens-Tu
TTITLE4=Le Drapeau
TTITLE5=Ca N'a Pas Marché
TTITLE6=Janvier
TTITLE7=Il M'arrive Encore
TTITLE8=Que Reste-T-Il A Vivre
TTITLE9=Je Suis Venu Vous Voir
TTITLE10=C'est Plus Pareil
TTITLE11=Novembre
EXTD=
EXTT0=
EXTT1=
EXTT2=
EXTT3=
EXTT4=
EXTT5=
EXTT6=
EXTT7=
EXTT8=
EXTT9=
EXTT10=
EXTT11=
PLAYORDER=
